<?xml version="1.0" encoding="UTF-8"?>
<!DOCTYPE svg PUBLIC "-//W3C//DTD SVG 1.1//EN" "http://www.w3.org/Graphics/SVG/1.1/DTD/svg11.dtd">
<svg xmlns="http://www.w3.org/2000/svg" version="1.1" width="512px" height="512px" style="shape-rendering:geometricPrecision; text-rendering:geometricPrecision; image-rendering:optimizeQuality; fill-rule:evenodd; clip-rule:evenodd" xmlns:xlink="http://www.w3.org/1999/xlink">
<g><path style="opacity:0.964" fill="blue" d="M -0.5,198.5 C -0.5,197.833 -0.5,197.167 -0.5,196.5C 7.14613,189.188 14.8128,181.855 22.5,174.5C 32.4859,183.986 42.3192,193.652 52,203.5C 73.4951,130.005 120.328,80.5054 192.5,55C 273.23,33.3706 344.064,50.8706 405,107.5C 411.604,114.098 417.438,121.264 422.5,129C 415.715,134.898 408.715,140.564 401.5,146C 399.788,147.751 397.788,148.418 395.5,148C 354.277,97.4015 300.943,74.7348 235.5,80C 169.091,90.4335 121.591,125.933 93,186.5C 91.2236,191.148 89.8903,195.815 89,200.5C 97.6809,191.652 106.514,182.986 115.5,174.5C 123.5,181.833 131.167,189.5 138.5,197.5C 115.514,220.986 92.3472,244.32 69,267.5C 45.9653,244.298 22.7986,221.298 -0.5,198.5 Z"/></g>
<g><path style="opacity:0.962" fill="blue" d="M 511.5,311.5 C 511.5,312.5 511.5,313.5 511.5,314.5C 503.854,321.812 496.187,329.145 488.5,336.5C 478.514,327.014 468.681,317.348 459,307.5C 438.513,378.655 393.679,427.488 324.5,454C 239.993,479.246 166.159,461.413 103,400.5C 96.7706,393.275 90.9372,385.775 85.5,378C 93.5358,370.799 102.202,364.299 111.5,358.5C 154.647,413.892 211.314,437.726 281.5,430C 345.369,418.45 390.869,383.283 418,324.5C 419.975,319.921 421.308,315.254 422,310.5C 413.319,319.348 404.486,328.014 395.5,336.5C 387.5,329.167 379.833,321.5 372.5,313.5C 395.319,290.18 418.319,267.014 441.5,244C 442.167,243.333 442.833,243.333 443.5,244C 466.035,266.702 488.701,289.202 511.5,311.5 Z"/></g>
</svg>
