<svg version="1.1" id="Layer_1" xmlns="http://www.w3.org/2000/svg" xmlns:xlink="http://www.w3.org/1999/xlink" x="0px" y="0px"
	 width="100%" viewBox="0 0 512 512" enable-background="transparent" xml:space="preserve">
<path fill="transparent" opacity="1.000000" stroke="none" 
	d="
M1.354567,198.115601 
	C1.000000,133.860809 1.032386,69.721565 0.914121,5.582598 
	C0.907498,1.990720 1.474789,0.890663 5.413785,0.893570 
	C173.175156,1.017363 340.936615,1.012187 508.698029,0.915160 
	C512.156677,0.913160 513.113953,1.441351 513.108948,5.194582 
	C512.972595,107.483818 513.000000,209.773270 513.000000,312.531342 
	C509.924103,313.460236 508.671875,310.863037 507.009094,309.209595 
	C487.630859,289.939636 468.329254,270.592621 449.000244,251.273102 
	C444.014160,246.289505 443.990356,246.286224 439.200226,251.073685 
	C419.399109,270.863739 399.602081,290.657898 379.814758,310.461700 
	C375.350769,314.929352 375.361389,315.056366 379.833557,319.558319 
	C383.943909,323.696045 388.071716,327.816528 392.204681,331.931702 
	C396.993011,336.699463 397.006012,336.700317 401.644348,332.082794 
	C407.549103,326.204529 413.388977,320.260590 419.353210,314.443085 
	C420.594238,313.232513 421.992432,311.069702 423.872009,312.248077 
	C425.694702,313.390839 424.587189,315.615448 423.981354,317.298981 
	C416.914307,336.937012 406.644501,354.780151 393.307068,370.790924 
	C376.643036,390.795013 356.430267,406.291351 332.874481,417.426636 
	C311.537659,427.512939 289.203156,433.183807 265.535034,434.383301 
	C239.093887,435.723297 213.811432,431.207794 189.466034,421.270447 
	C160.485458,409.441132 136.309143,391.093170 117.005783,366.403381 
	C113.204514,361.541412 112.855515,361.423096 107.852119,364.974030 
	C102.553345,368.734619 97.428558,372.751678 92.038544,376.366943 
	C88.598137,378.674500 88.789436,380.707947 91.029724,383.674500 
	C103.163910,399.742371 117.363571,413.693207 133.615921,425.555450 
	C161.049225,445.578308 191.549149,458.282471 225.153809,463.190826 
	C273.643066,470.273254 319.253601,461.759277 361.842285,437.336792 
	C390.289825,421.023590 413.147369,398.758331 431.269012,371.642914 
	C443.005035,354.082306 451.517548,334.908691 457.288696,314.556824 
	C457.470520,313.915558 457.619141,313.263306 457.833710,312.633179 
	C459.339813,308.209595 460.655884,307.780731 464.063904,310.892426 
	C467.631470,314.149811 470.937103,317.685211 474.361237,321.095062 
	C478.375824,325.092926 482.491455,328.998413 486.343323,333.147522 
	C489.043610,336.056244 491.129364,335.847656 493.761566,333.046600 
	C498.209686,328.313110 502.893677,323.799469 507.518646,319.233917 
	C508.925049,317.845581 510.171844,316.194061 512.645325,315.884216 
	C513.000000,380.139160 512.967651,444.278412 513.085876,508.417358 
	C513.092529,512.009094 512.525330,513.109375 508.586243,513.106445 
	C340.824921,512.982666 173.063477,512.987854 5.302098,513.084839 
	C1.843843,513.086853 0.886063,512.559143 0.891048,508.805542 
	C1.027337,406.182922 1.000000,303.560120 1.000000,200.468658 
	C4.075813,199.539749 5.329051,202.136093 6.991976,203.789841 
	C26.488506,223.178879 45.907574,242.645782 65.357742,262.081482 
	C70.439758,267.159698 70.561089,267.159454 75.622643,262.101288 
	C95.189987,242.547104 114.752235,222.987808 134.303421,203.417480 
	C138.597931,199.118744 138.594925,198.908905 134.405396,194.686569 
	C129.710419,189.954849 124.917557,185.317993 120.294838,180.517685 
	C117.884293,178.014526 115.986191,178.169174 113.615211,180.598907 
	C107.331108,187.038727 100.968147,193.404526 94.513153,199.673889 
	C93.307495,200.844864 91.965057,203.011520 89.998238,201.597443 
	C88.418015,200.461304 89.559387,198.517807 90.096786,196.975021 
	C97.478958,175.782578 108.873901,157.008560 123.558617,140.046173 
	C145.306564,114.924995 172.290054,97.829269 203.612366,87.583794 
	C217.850296,82.926605 232.570755,80.329552 247.712952,79.576027 
	C267.909515,78.570976 287.551331,80.930931 306.871277,86.453293 
	C330.921967,93.327873 352.400635,105.060638 371.518982,121.199165 
	C380.207153,128.533188 388.252777,136.476212 395.285248,145.397034 
	C397.613556,148.350540 399.693878,148.289642 402.420258,146.153687 
	C407.665955,142.043976 413.105225,138.186630 418.286469,133.987869 
	C422.663696,130.440643 422.844757,129.971008 419.309906,125.669662 
	C407.093719,110.804626 393.329193,97.583611 377.530396,86.529968 
	C355.279846,70.962334 330.904663,60.017052 304.515717,53.847927 
	C286.144928,49.553261 267.386932,47.272129 248.511810,48.358727 
	C201.380341,51.071980 159.069595,66.460625 122.805168,97.330902 
	C93.983292,121.865669 73.210121,151.916718 60.383442,187.485001 
	C58.972137,191.398499 57.985786,195.460114 56.734703,199.434021 
	C54.504421,206.518204 53.563061,206.778442 48.134155,201.391708 
	C41.509712,194.818710 34.946125,188.184448 28.325399,181.607681 
	C24.102465,177.412781 23.886730,177.425461 19.577534,181.700684 
	C15.200410,186.043289 10.872123,190.435196 6.483183,194.765747 
	C5.075984,196.154236 3.828549,197.805847 1.354567,198.115601 
z"/>
<path fill="#ff7a45" opacity="1.000000" stroke="none" 
	d="
M513.000000,315.625000 
	C506.228912,322.603271 499.356659,329.107605 492.745331,335.867188 
	C490.628418,338.031555 489.525330,338.223022 487.314148,335.928314 
	C478.648621,326.935608 469.743317,318.173859 460.382538,308.779785 
	C459.159607,312.735748 458.056641,316.241882 456.991486,319.759460 
	C451.274567,338.639709 442.712036,356.164551 432.046631,372.727051 
	C421.922211,388.449463 409.452820,402.188507 395.689178,414.653748 
	C375.239868,433.173889 351.367706,446.334625 325.536499,455.566132 
	C311.923950,460.430969 297.724091,463.694733 283.152588,465.118225 
	C272.489838,466.159912 261.844971,467.494629 251.148941,466.933319 
	C226.140472,465.620911 201.737320,461.385437 178.346313,451.867676 
	C161.701843,445.095093 146.026581,436.596741 131.780746,425.828522 
	C118.736343,415.968445 106.159599,405.418121 96.309586,392.014221 
	C93.634750,388.374268 90.576767,384.936707 87.786034,381.326538 
	C86.399483,379.532898 86.879456,378.243683 88.442383,377.151337 
	C95.840958,371.980469 103.442307,367.079926 110.610970,361.610626 
	C113.109100,359.704651 114.227516,360.212891 115.669235,362.223999 
	C131.052200,383.682434 150.812698,399.954987 173.929901,412.574585 
	C190.035126,421.366364 207.258591,426.840302 224.947327,430.705139 
	C231.828262,432.208557 239.081436,433.429657 246.376801,433.052979 
	C253.191101,432.701111 259.982635,433.553741 266.864197,433.152588 
	C284.630737,432.117004 301.688812,428.349579 318.363129,422.276917 
	C336.868744,415.537292 353.711975,405.776886 368.860687,393.428314 
	C384.635712,380.569183 397.802002,365.227234 408.159637,347.538330 
	C414.271667,337.100159 419.523987,326.319183 423.610504,314.944702 
	C423.913940,314.100128 423.933655,313.395477 422.797455,311.478394 
	C420.769989,313.913971 418.908783,316.514771 416.683594,318.753845 
	C410.243469,325.234100 403.657166,331.569092 397.128265,337.961121 
	C389.812500,332.177887 383.879211,324.964905 377.117279,318.608795 
	C376.753357,318.266693 376.450439,317.847595 376.051849,317.556488 
	C373.851654,315.949677 373.727386,314.662445 375.863129,312.543182 
	C397.862549,290.713470 419.798737,268.818939 441.587860,246.779648 
	C444.273102,244.063614 445.340698,245.816864 446.981506,247.459686 
	C468.760803,269.265686 490.550323,291.061462 512.668640,312.929901 
	C513.000000,313.750000 513.000000,314.500000 513.000000,315.625000 
z"/>
<path fill="#ff7a45" opacity="1.000000" stroke="none" 
	d="
M1.000002,198.333328 
	C7.770851,191.397003 14.642598,184.892700 21.254015,178.133759 
	C23.369339,175.971222 24.472198,175.774292 26.684879,178.070633 
	C35.350010,187.063293 44.255424,195.824432 53.519485,205.121078 
	C55.040405,200.662460 56.644016,196.634689 57.791183,192.480881 
	C62.539780,175.286484 70.676720,159.689468 79.907890,144.566772 
	C90.164429,127.764259 103.144661,113.224739 117.608673,100.071304 
	C129.346420,89.397110 142.341263,80.393723 156.392883,72.792389 
	C171.870560,64.419632 187.881561,57.596714 204.978104,53.593067 
	C216.816101,50.820850 228.786743,48.766453 240.993866,47.780743 
	C248.774719,47.152447 256.544586,46.682598 264.251129,47.142414 
	C275.772858,47.829865 287.296143,48.910419 298.660675,51.256348 
	C320.217163,55.706150 340.562958,63.348797 359.800110,73.988937 
	C373.314270,81.463661 385.948029,90.197876 397.241913,100.767929 
	C406.319550,109.263817 415.209381,117.930420 422.650696,127.988495 
	C424.398438,130.350815 424.189240,131.121277 421.869019,132.777603 
	C414.748627,137.860611 407.765686,143.155869 400.977844,148.674271 
	C398.605957,150.602585 397.094330,150.186111 395.674042,148.120377 
	C390.498840,140.593323 384.089386,134.164108 377.428558,128.039139 
	C366.910950,118.367699 355.395660,110.068481 342.962616,102.887573 
	C326.200623,93.206429 308.050964,87.597984 289.426025,83.298149 
	C283.111237,81.840286 276.474274,81.068428 270.005676,81.182449 
	C263.328094,81.300163 256.754913,80.358849 249.998047,80.648300 
	C231.294312,81.449516 213.358154,85.144753 195.974869,91.604256 
	C175.376953,99.258293 156.897339,110.442123 140.265091,125.019867 
	C120.700432,142.167786 106.321320,162.862900 95.423286,186.197876 
	C93.146011,191.074020 91.605927,196.294464 90.588860,201.950500 
	C98.145660,194.380951 105.868835,186.967270 113.177864,179.165588 
	C116.127502,176.017136 117.776176,175.768829 120.784180,179.114563 
	C126.234985,185.177338 132.146927,190.838776 138.054504,196.470413 
	C140.112045,198.431824 140.091003,199.503418 138.063828,201.516510 
	C116.547012,222.883987 95.075790,244.298553 73.766884,265.872864 
	C70.884209,268.791443 69.364311,267.970978 66.980034,265.572021 
	C45.255566,243.713745 23.446842,221.939209 1.331370,200.070099 
	C1.000000,199.555557 1.000000,199.111099 1.000002,198.333328 
z"/>
</svg>