<svg version="1.1" id="Layer_1" xmlns="http://www.w3.org/2000/svg" xmlns:xlink="http://www.w3.org/1999/xlink" x="0px" y="0px"
	 width="100%" viewBox="0 0 512 448" enable-background="new 0 0 512 448" xml:space="preserve">
<path fill="#001529" opacity="1.000000" stroke="none" 
	d="
M513.000000,213.000000 
	C513.000000,221.354233 513.000000,229.708466 512.695068,238.682922 
	C511.912628,239.758423 511.265167,240.127014 510.982361,240.681549 
	C503.756836,254.849091 492.106598,260.168701 476.390350,260.135101 
	C356.755890,259.879150 237.120621,259.994507 117.485596,260.000732 
	C115.487411,260.000824 113.472061,259.934509 111.495285,260.163269 
	C108.880554,260.465912 108.414108,262.004608 109.970490,263.963989 
	C111.918678,266.416595 114.087700,268.692383 116.116028,271.083008 
	C123.520988,279.810669 130.951187,288.517517 138.289337,297.301178 
	C147.846497,308.740967 157.310745,320.258270 166.841995,331.719788 
	C174.054092,340.392456 181.316467,349.023315 188.542160,357.684723 
	C197.984879,369.003693 207.311508,380.421387 216.874130,391.638000 
	C228.665375,405.468658 230.009979,422.152313 220.475067,437.533234 
	C217.701508,442.007324 212.881790,445.212952 209.000000,449.000000 
	C198.312439,449.000000 187.624878,449.000000 176.373520,448.673279 
	C171.254715,443.336761 166.574661,438.434235 162.167892,433.297241 
	C148.352325,417.192535 134.554306,401.071198 120.913826,384.818359 
	C109.729149,371.491730 98.821175,357.933258 87.710892,344.543640 
	C80.092422,335.362213 72.285103,326.337555 64.658386,317.162872 
	C57.450996,308.492584 50.423615,299.672699 43.218792,291.000244 
	C33.483017,279.281250 23.570883,267.708008 13.900394,255.935867 
	C9.398862,250.456024 5.287965,244.655289 0.999998,239.000000 
	C1.000000,230.645767 1.000000,222.291534 1.307521,213.319183 
	C5.500883,207.206497 9.134157,201.510590 13.321792,196.256561 
	C24.164028,182.653275 35.155006,169.165329 46.269089,155.782898 
	C55.587051,144.563171 65.228798,133.612930 74.605293,122.441078 
	C83.985107,111.265236 93.136955,99.897942 102.527924,88.731621 
	C114.382782,74.635628 126.382172,60.661228 138.312561,46.628708 
	C151.665512,30.922953 162.805023,13.195475 180.000000,1.000000 
	C188.687561,1.000000 197.375137,1.000000 206.667862,1.307779 
	C211.841904,5.834551 217.712585,9.288554 220.728210,14.420302 
	C228.803192,28.161610 230.167435,40.006802 220.209915,54.474194 
	C215.164032,61.805412 209.053452,68.408066 203.370270,75.295601 
	C189.868927,91.658058 176.407562,108.054329 162.796066,124.324844 
	C146.947266,143.269714 130.931290,162.074661 115.053833,180.995682 
	C112.808914,183.670944 110.937035,186.659225 108.892494,189.502625 
	C109.101097,190.003357 109.309708,190.504105 109.518311,191.004852 
	C112.255203,191.004852 114.992096,191.004852 117.728989,191.004852 
	C238.050919,191.005325 358.372833,190.999481 478.694763,191.016846 
	C489.690582,191.018433 499.264496,194.411514 506.237579,203.371185 
	C508.643585,206.462616 510.754364,209.783783 513.000000,213.000000 
z"/>
<path fill="#ffffff" opacity="1.000000" stroke="none" 
	d="
M513.000000,212.531342 
	C510.754364,209.783783 508.643585,206.462616 506.237579,203.371185 
	C499.264496,194.411514 489.690582,191.018433 478.694763,191.016846 
	C358.372833,190.999481 238.050919,191.005325 117.728989,191.004852 
	C114.992096,191.004852 112.255203,191.004852 109.518311,191.004852 
	C109.309708,190.504105 109.101097,190.003357 108.892494,189.502625 
	C110.937035,186.659225 112.808914,183.670944 115.053833,180.995682 
	C130.931290,162.074661 146.947266,143.269714 162.796066,124.324844 
	C176.407562,108.054329 189.868927,91.658058 203.370270,75.295601 
	C209.053452,68.408066 215.164032,61.805412 220.209915,54.474194 
	C230.167435,40.006802 228.803192,28.161610 220.728210,14.420302 
	C217.712585,9.288554 211.841904,5.834551 207.136505,1.307779 
	C308.913788,1.000000 410.827606,1.000000 513.000000,1.000000 
	C513.000000,71.354019 513.000000,141.708344 513.000000,212.531342 
z"/>
<path fill="#ffffff" opacity="1.000000" stroke="none" 
	d="
M209.468658,449.000000 
	C212.881790,445.212952 217.701508,442.007324 220.475067,437.533234 
	C230.009979,422.152313 228.665375,405.468658 216.874130,391.638000 
	C207.311508,380.421387 197.984879,369.003693 188.542160,357.684723 
	C181.316467,349.023315 174.054092,340.392456 166.841995,331.719788 
	C157.310745,320.258270 147.846497,308.740967 138.289337,297.301178 
	C130.951187,288.517517 123.520988,279.810669 116.116028,271.083008 
	C114.087700,268.692383 111.918678,266.416595 109.970490,263.963989 
	C108.414108,262.004608 108.880554,260.465912 111.495285,260.163269 
	C113.472061,259.934509 115.487411,260.000824 117.485596,260.000732 
	C237.120621,259.994507 356.755890,259.879150 476.390350,260.135101 
	C492.106598,260.168701 503.756836,254.849091 510.982361,240.681549 
	C511.265167,240.127014 511.912628,239.758423 512.695068,239.151581 
	C513.000000,308.940399 513.000000,378.880798 513.000000,449.000000 
	C411.979187,449.000000 310.958252,449.000000 209.468658,449.000000 
z"/>
<path fill="#ffffff" opacity="1.000000" stroke="none" 
	d="
M179.531342,1.000000 
	C162.805023,13.195475 151.665512,30.922953 138.312561,46.628708 
	C126.382172,60.661228 114.382782,74.635628 102.527924,88.731621 
	C93.136955,99.897942 83.985107,111.265236 74.605293,122.441078 
	C65.228798,133.612930 55.587051,144.563171 46.269089,155.782898 
	C35.155006,169.165329 24.164028,182.653275 13.321792,196.256561 
	C9.134157,201.510590 5.500883,207.206497 1.307521,212.850540 
	C1.000000,142.412460 1.000000,71.824921 1.000000,1.000000 
	C60.354015,1.000000 119.708351,1.000000 179.531342,1.000000 
z"/>
<path fill="#ffffff" opacity="1.000000" stroke="none" 
	d="
M0.999998,239.468658 
	C5.287965,244.655289 9.398862,250.456024 13.900394,255.935867 
	C23.570883,267.708008 33.483017,279.281250 43.218792,291.000244 
	C50.423615,299.672699 57.450996,308.492584 64.658386,317.162872 
	C72.285103,326.337555 80.092422,335.362213 87.710892,344.543640 
	C98.821175,357.933258 109.729149,371.491730 120.913826,384.818359 
	C134.554306,401.071198 148.352325,417.192535 162.167892,433.297241 
	C166.574661,438.434235 171.254715,443.336761 175.904861,448.673279 
	C117.733002,449.000000 59.466007,449.000000 1.000000,449.000000 
	C1.000000,379.312561 1.000000,309.624939 0.999998,239.468658 
z"/>
</svg>