<svg width="24" height="24" viewBox="0 0 24 24" fill="none" xmlns="http://www.w3.org/2000/svg">
<g clip-path="url(#clip0_184307_30788)">
<path d="M23.8931 16.6691L23.8877 16.6637C22.7065 14.1646 20.877 12.8789 18.4422 12.8789C16.0074 12.8789 14.1779 14.1673 12.994 16.6637V16.6664C12.9225 16.819 12.8855 16.9854 12.8855 17.1539C12.8855 17.3224 12.9225 17.4888 12.994 17.6414C14.1779 20.1378 16.0074 21.4235 18.4422 21.4235C20.877 21.4235 22.7065 20.1352 23.8904 17.6387C24.035 17.3307 24.035 16.9744 23.8931 16.6691ZM18.4422 19.7093C16.7788 19.7093 15.5654 18.9057 14.6627 17.1512C15.5627 15.3968 16.7788 14.5932 18.4422 14.5932C20.1056 14.5932 21.319 15.3968 22.2216 17.1512C21.3216 18.9057 20.1056 19.7093 18.4422 19.7093Z" fill="#082340"/>
<path d="M16.9554 17.1646C16.9554 17.5624 17.1134 17.944 17.3947 18.2253C17.676 18.5066 18.0575 18.6646 18.4554 18.6646C18.8532 18.6646 19.2347 18.5066 19.516 18.2253C19.7973 17.944 19.9554 17.5624 19.9554 17.1646C19.9554 16.7668 19.7973 16.3853 19.516 16.104C19.2347 15.8227 18.8532 15.6646 18.4554 15.6646C18.0575 15.6646 17.676 15.8227 17.3947 16.104C17.1134 16.3853 16.9554 16.7668 16.9554 17.1646ZM1.92857 4.49498H20.7857V11.2718H22.7143V3.42355C22.7143 2.94944 22.3313 2.56641 21.8571 2.56641H0.857143C0.383036 2.56641 0 2.94944 0 3.42355V17.3521C0 17.8262 0.383036 18.2093 0.857143 18.2093H10.2857V16.2807H1.92857V4.49498Z" fill="#082340"/>
<path d="M17.7028 7.34082L16.7171 6.35511C16.6768 6.31523 16.6224 6.29286 16.5657 6.29286C16.5091 6.29286 16.4547 6.31523 16.4144 6.35511L11.4912 11.2837L9.18494 8.97475C9.14466 8.93487 9.09028 8.9125 9.0336 8.9125C8.97692 8.9125 8.92253 8.93487 8.88226 8.97475L5.01708 12.8399C4.9772 12.8802 4.95483 12.9346 4.95483 12.9913C4.95483 13.0479 4.9772 13.1023 5.01708 13.1426L6.0028 14.1283C6.08583 14.2114 6.22244 14.2114 6.30547 14.1283L9.03226 11.4015L11.3385 13.7105C11.4215 13.7935 11.5582 13.7935 11.6412 13.7105L17.7028 7.6435C17.7885 7.56047 17.7885 7.42386 17.7028 7.34082Z" fill="#082340"/>
</g>
<defs>
<clipPath id="clip0_184307_30788">
<rect width="24" height="24" fill="white"/>
</clipPath>
</defs>
</svg>
