<svg width="24" height="24" viewBox="0 0 24 24" fill="none" xmlns="http://www.w3.org/2000/svg">
<path d="M16.3923 13.423C15.0316 13.423 13.928 14.5266 13.928 15.8873C13.928 17.248 15.0316 18.3516 16.3923 18.3516C17.753 18.3516 18.8566 17.248 18.8566 15.8873C18.8566 14.5266 17.753 13.423 16.3923 13.423ZM16.3923 16.798C15.8887 16.798 15.4816 16.3908 15.4816 15.8873C15.4816 15.3837 15.8887 14.9766 16.3923 14.9766C16.8959 14.9766 17.303 15.3837 17.303 15.8873C17.303 16.3908 16.8959 16.798 16.3923 16.798ZM21.8566 2.78906H16.178C16.178 1.96138 15.5057 1.28906 14.678 1.28906H12.5352C11.7075 1.28906 11.0352 1.96138 11.0352 2.78906H5.35659C4.88248 2.78906 4.49944 3.1721 4.49944 3.64621V9.00335H2.1423C1.66819 9.00335 1.28516 9.38638 1.28516 9.86049V21.8605C1.28516 22.3346 1.66819 22.7176 2.1423 22.7176H11.1423C11.6164 22.7176 11.9994 22.3346 11.9994 21.8605V21.4319H21.8566C22.3307 21.4319 22.7137 21.0489 22.7137 20.5748V3.64621C22.7137 3.1721 22.3307 2.78906 21.8566 2.78906ZM10.8209 4.50335H12.7494V3.00335H14.4637V4.50335H16.3923V5.78906H10.8209V4.50335ZM10.2852 21.0033H2.99944V14.7891H10.2852V21.0033ZM10.2852 13.0748H2.99944V10.7176H10.2852V13.0748ZM20.7852 19.5033H11.9994V9.86049C11.9994 9.38638 11.6164 9.00335 11.1423 9.00335H6.42801V4.71763H9.10659V7.50335H18.1066V4.71763H20.7852V19.5033ZM17.1423 9.21763V11.7891C17.1423 11.9069 17.2387 12.0033 17.3566 12.0033H18.6423C18.7602 12.0033 18.8566 11.9069 18.8566 11.7891V9.21763C18.8566 9.09978 18.7602 9.00335 18.6423 9.00335H17.3566C17.2387 9.00335 17.1423 9.09978 17.1423 9.21763ZM14.1423 12.0033H15.428C15.5459 12.0033 15.6423 11.9069 15.6423 11.7891V10.2891C15.6423 10.1712 15.5459 10.0748 15.428 10.0748H14.1423C14.0244 10.0748 13.928 10.1712 13.928 10.2891V11.7891C13.928 11.9069 14.0244 12.0033 14.1423 12.0033Z" fill="#082340"/>
</svg>
