<?xml version="1.0" encoding="UTF-8"?>
<svg version="1.1" xmlns="http://www.w3.org/2000/svg" width="512" height="512">
<path d="M0 0 C3.19530607 2.88185263 6.27773792 5.86815605 9.3515625 8.87890625 C10.56392578 10.01585937 10.56392578 10.01585937 11.80078125 11.17578125 C40.95481135 39.05782051 57.47611212 81.42000403 58.47265625 121.34765625 C59.1416162 160.01127373 48.05589898 197.10181247 24.3515625 227.87890625 C23.64515625 228.80960937 22.93875 229.7403125 22.2109375 230.69921875 C-4.91991265 265.1654469 -44.7649204 286.51753979 -88.06494141 292.19580078 C-117.80252581 295.48168923 -148.36612151 291.26170775 -175.6484375 278.87890625 C-176.29377441 278.5864502 -176.93911133 278.29399414 -177.60400391 277.99267578 C-192.32996694 271.20630248 -205.37827527 262.47586454 -217.6484375 251.87890625 C-218.85113281 250.85990234 -218.85113281 250.85990234 -220.078125 249.8203125 C-225.0695711 245.50951814 -229.48087799 240.9856341 -233.6484375 235.87890625 C-234.05852051 235.38116699 -234.46860352 234.88342773 -234.89111328 234.37060547 C-264.84140797 197.85822819 -277.74699633 153.17844632 -273.1875 106.20703125 C-268.995088 72.12956509 -253.99425069 40.21838821 -230.69140625 15.1328125 C-229.27167906 13.5664978 -227.91001009 11.94637792 -226.59765625 10.2890625 C-203.69776359 -18.02603523 -161.63099689 -34.82516377 -126.30175781 -38.65405273 C-80.87631812 -42.67554641 -34.70011967 -30.34593112 0 0 Z M-196.6484375 23.87890625 C-197.42960937 24.53761719 -198.21078125 25.19632813 -199.015625 25.875 C-223.83702459 47.31166329 -240.44747503 79.68047528 -243.46972656 112.34765625 C-246.36019737 153.2880952 -234.08704672 188.95325685 -207.3984375 219.94140625 C-203.73295568 223.91421886 -199.84006846 227.47009262 -195.6484375 230.87890625 C-194.71386719 231.65105469 -193.77929688 232.42320312 -192.81640625 233.21875 C-165.38949183 255.41201571 -130.13362439 265.60942121 -95.05175781 262.66064453 C-70.73427467 260.01298898 -47.27570313 251.73118039 -27.6484375 236.87890625 C-26.74351562 236.19441406 -25.83859375 235.50992188 -24.90625 234.8046875 C4.2417913 211.80828664 22.94950504 179.22519177 27.6875 142.2578125 C31.35751145 108.08703018 22.02546093 72.02285294 0.77734375 44.79296875 C-3.51200851 39.6402203 -8.03124625 34.73761212 -12.6484375 29.87890625 C-13.50308594 28.92757812 -13.50308594 28.92757812 -14.375 27.95703125 C-35.53063948 5.17403489 -69.33769895 -7.54573568 -99.91674805 -9.24731445 C-135.86360022 -10.45848767 -169.20644344 0.48344351 -196.6484375 23.87890625 Z " fill="#40AD48" transform="translate(363.6484375,129.12109375)"/>
<path d="M0 0 C2.19404648 0.99873692 3.51903706 2.16532497 5.21421719 3.88068581 C6.17476009 4.8415686 6.17476009 4.8415686 7.15470791 5.82186317 C7.8340237 6.51666283 8.5133395 7.21146248 9.21324062 7.92731667 C9.91785427 8.63617516 10.62246792 9.34503365 11.34843349 10.0753727 C13.59696347 12.34069322 15.83483801 14.6162225 18.07261562 16.89216042 C19.5953627 18.42995376 21.11879216 19.96707173 22.64292812 21.50348854 C26.37744372 25.27107843 30.10326412 29.04710306 33.82261562 32.82966042 C32.1813142 37.02164586 29.09950213 39.82533296 25.96345425 42.92933083 C25.35737965 43.53711427 24.75130505 44.14489772 24.12686455 44.77109885 C22.09251026 46.80875034 20.05108453 48.83916604 18.00962734 50.86969948 C16.55079329 52.32796947 15.09239933 53.78667984 13.63441372 55.24579811 C9.67218278 59.20860375 5.70380794 63.16520517 1.73432207 67.12074184 C-2.41192289 71.25449909 -6.55251895 75.39390655 -10.69371128 79.53272438 C-18.53782348 87.37061605 -26.38702079 95.20339477 -34.23804653 103.03436065 C-43.17535436 111.94932731 -52.10699565 120.86996183 -61.03815961 129.79108286 C-79.41159187 148.14360014 -97.79214785 166.488969 -116.17738438 184.82966042 C-119.13893436 183.49593625 -121.21715232 182.03808117 -123.50569248 179.74186134 C-124.14225269 179.10805046 -124.7788129 178.47423958 -125.43466282 177.82122231 C-126.1215871 177.12710747 -126.80851139 176.43299263 -127.51625156 175.71784401 C-128.24835346 174.98603416 -128.98045536 174.25422432 -129.73474216 173.50023842 C-132.15268546 171.08090212 -134.56346807 168.65455929 -136.97425938 166.22809792 C-138.64962467 164.5490024 -140.32543216 162.87034798 -142.00166416 161.19211769 C-146.41193939 156.7742068 -150.81617551 152.3503226 -155.21919346 147.92518044 C-159.71335358 143.41056055 -164.21318176 138.90159809 -168.71254063 134.39216042 C-177.53972134 125.54353096 -186.36053436 116.68858266 -195.17738438 107.82966042 C-188.90586775 100.4310266 -188.90586775 100.4310266 -185.83412266 97.37287331 C-184.96389973 96.50276367 -184.96389973 96.50276367 -184.07609653 95.61507607 C-183.47272465 95.01686546 -182.86935276 94.41865486 -182.24769688 93.80231667 C-181.29490345 92.85164566 -181.29490345 92.85164566 -180.32286167 91.88176918 C-178.31839721 89.88284635 -176.31046224 87.88745258 -174.30238438 85.89216042 C-172.93236048 84.52715908 -171.56256664 83.16192681 -170.19300938 81.79645729 C-166.85711894 78.47151831 -163.51811402 75.14973689 -160.17738438 71.82966042 C-154.70424472 76.39113589 -149.63783629 81.23707363 -144.61879063 86.29059792 C-143.82963764 87.08116585 -143.04048466 87.87173378 -142.22741795 88.68625832 C-139.72919776 91.19003667 -137.23449393 93.69728516 -134.73988438 96.20466042 C-133.0376423 97.9119229 -131.33517065 99.61895651 -129.6324625 101.32575417 C-125.47811048 105.49107966 -121.32683929 109.65945714 -117.17738438 113.82966042 C-110.91173626 108.66447129 -105.23603661 102.98956702 -99.5321207 97.21857643 C-98.47381136 96.15178605 -97.41523565 95.08525986 -96.35641575 94.01897621 C-94.08914741 91.73507635 -91.82328147 89.44979754 -89.55837536 87.16355515 C-85.97809901 83.55052684 -82.39175029 79.94356788 -78.80401707 76.33794594 C-78.19733733 75.72817974 -77.5906576 75.11841354 -76.96559364 74.49016958 C-75.72593923 73.24420858 -74.48627639 71.99825597 -73.24660528 70.75231159 C-64.90229904 62.36503453 -56.56264204 53.97321349 -48.23719883 45.56720924 C-42.60893792 39.88458126 -36.9719253 34.21079865 -31.32460517 28.54710907 C-28.33880555 25.55191909 -25.35780169 22.55227208 -22.38750744 19.54169846 C-19.59998462 16.71647437 -16.80118045 13.90295331 -13.99311733 11.09814835 C-12.96318048 10.0652295 -11.93755742 9.02798925 -10.91654301 7.98624992 C-9.52637689 6.56912005 -8.11932911 5.16860865 -6.71139622 3.7691288 C-5.92774598 2.97957078 -5.14409575 2.19001276 -4.33669853 1.37652874 C-2.17738438 -0.17033958 -2.17738438 -0.17033958 0 0 Z " fill="#41AD48" transform="translate(331.1773843765259,175.1703395843506)"/>
</svg>
