<?xml version="1.0" standalone="no"?>
<!DOCTYPE svg PUBLIC "-//W3C//DTD SVG 20010904//EN"
 "http://www.w3.org/TR/2001/REC-SVG-20010904/DTD/svg10.dtd">
<svg version="1.0" xmlns="http://www.w3.org/2000/svg"
 width="320.000000pt" height="320.000000pt" viewBox="0 0 320.000000 320.000000"
 preserveAspectRatio="xMidYMid meet">

<g transform="translate(0.000000,320.000000) scale(0.100000,-0.100000)"
fill="#d4d4d4" stroke="none">
<path d="M1103 3026 c-534 -102 -902 -583 -852 -1116 26 -278 163 -538 376
-710 192 -155 407 -231 658 -231 194 0 368 47 527 142 l82 50 371 -370 c399
-399 392 -393 480 -377 40 8 99 55 121 97 18 36 18 112 0 147 -8 15 -177 189
-374 386 l-360 359 23 37 c254 402 210 915 -110 1267 -121 134 -310 248 -495
298 -119 33 -333 43 -447 21z m392 -316 c241 -76 420 -254 495 -495 33 -107
38 -265 11 -378 -53 -221 -193 -397 -395 -497 -108 -53 -197 -73 -326 -72
-207 0 -366 67 -515 217 -150 149 -217 308 -218 515 0 128 19 215 73 325 97
198 273 341 487 395 106 27 286 22 388 -10z"/>
</g>
</svg>
