<?xml version="1.0" standalone="no"?>
<!DOCTYPE svg PUBLIC "-//W3C//DTD SVG 20010904//EN"
 "http://www.w3.org/TR/2001/REC-SVG-20010904/DTD/svg10.dtd">
<svg version="1.0" xmlns="http://www.w3.org/2000/svg"
 width="512.000000pt" height="512.000000pt" viewBox="0 0 512.000000 512.000000"
 preserveAspectRatio="xMidYMid meet">

<g transform="translate(0.000000,512.000000) scale(0.100000,-0.100000)"
fill="#ffffff" stroke="none">
<path d="M1755 4815 c-682 -108 -1237 -606 -1410 -1265 -41 -159 -55 -268 -55
-452 0 -194 20 -329 75 -513 44 -147 142 -347 233 -475 102 -144 313 -352 447
-440 210 -138 400 -218 634 -267 112 -24 148 -26 326 -26 162 0 223 4 319 21
279 51 574 186 781 356 28 23 58 48 68 55 17 13 81 -48 785 -752 738 -738 769
-767 804 -767 43 0 68 27 68 75 0 26 -91 120 -767 797 -704 704 -765 768 -752
785 7 10 32 41 55 68 170 207 305 502 356 781 17 96 21 157 21 319 0 178 -2
214 -26 326 -49 234 -129 424 -267 634 -88 134 -296 345 -440 447 -198 141
-456 245 -708 289 -134 22 -416 25 -547 4z m482 -146 c237 -32 474 -124 678
-263 136 -92 325 -285 418 -426 85 -129 128 -217 181 -367 211 -609 19 -1306
-474 -1717 -485 -405 -1129 -487 -1710 -220 -280 129 -578 420 -719 701 -84
168 -137 335 -160 506 -18 130 -14 360 9 492 111 648 631 1170 1280 1285 122
21 374 26 497 9z"/>
<path d="M2000 3907 c-48 -24 -50 -40 -50 -379 l0 -317 -331 -3 -331 -3 -19
-24 c-25 -30 -24 -76 1 -101 19 -19 33 -20 350 -20 l330 0 0 -315 c0 -346 4
-378 54 -391 37 -9 74 3 87 27 7 14 11 130 12 347 l2 327 305 2 c168 2 317 3
333 3 59 0 87 73 48 121 l-19 24 -334 5 -333 5 -2 310 c-1 171 -4 322 -7 337
-3 17 -17 33 -35 43 -36 18 -30 18 -61 2z"/>
</g>
</svg>
